<?xml version="1.0" encoding="UTF-8" standalone="no"?>
<svg
   version="1.0"
   width="644.000000pt"
   height="264.000000pt"
   viewBox="0 0 644.000000 264.000000"
   preserveAspectRatio="xMidYMid meet"
   id="svg91"
   sodipodi:docname="merl_logo.svg"
   inkscape:version="1.2.1 (9c6d41e4, 2022-07-14)"
   xmlns:inkscape="http://www.inkscape.org/namespaces/inkscape"
   xmlns:sodipodi="http://sodipodi.sourceforge.net/DTD/sodipodi-0.dtd"
   xmlns="http://www.w3.org/2000/svg"
   xmlns:svg="http://www.w3.org/2000/svg">
  <defs
     id="defs95" />
  <sodipodi:namedview
     id="namedview93"
     pagecolor="#ffffff"
     bordercolor="#000000"
     borderopacity="0.25"
     inkscape:showpageshadow="2"
     inkscape:pageopacity="0.0"
     inkscape:pagecheckerboard="0"
     inkscape:deskcolor="#d1d1d1"
     inkscape:document-units="pt"
     showgrid="false"
     inkscape:zoom="1.451087"
     inkscape:cx="392.11984"
     inkscape:cy="176.76404"
     inkscape:window-width="1851"
     inkscape:window-height="1027"
     inkscape:window-x="69"
     inkscape:window-y="25"
     inkscape:window-maximized="0"
     inkscape:current-layer="g89" />
  <g
     transform="translate(0.000000,264.000000) scale(0.100000,-0.100000)"
     fill="#000000"
     stroke="none"
     id="g89">
    <path
       d="M1121 2517 c-19 -34 -56 -100 -84 -147 -27 -47 -67 -114 -87 -150 -21 -36 -58 -100 -83 -142 l-45 -78 45 -77 c25 -43 63 -107 83 -143 69 -120 159 -275 185 -319 24 -41 27 -42 39 -25 13 18 146 249 268 462 l58 102 -58 103 c-77 134 -252 437 -266 460 -6 9 -13 17 -16 17 -3 0 -20 -28 -39 -63z"
       id="path9"
       style="opacity:1;fill:#ff0000" />
    <path
       d="M3677 2055 c-141 -50 -159 -220 -32 -292 21 -12 77 -31 123 -42 47 -12 94 -28 104 -37 22 -21 24 -67 3 -88 -23 -22 -90 -38 -130 -30 -41 7 -85 45 -85 74 0 18 -6 20 -55 20 -53 0 -55 -1 -55 -26 0 -43 41 -104 90 -132 40 -24 55 -27 140 -27 86 0 100 3 142 27 104 61 118 202 27 270 -37 28 -79 43 -149 53 -63 10 -106 30 -120 55 -42 78 94 137 169 74 17 -14 31 -34 31 -45 0 -16 8 -19 55 -19 49 0 55 2 55 20 0 27 -32 90 -58 113 -49 45 -177 61 -255 32z"
       id="path11" />
    <path
       d="M5305 2058 c-81 -28 -131 -99 -122 -174 9 -86 62 -127 207 -163 94 -24 120 -41 120 -82 0 -35 -20 -55 -68 -69 -49 -13 -55 -13 -101 6 -30 12 -44 25 -53 50 -12 33 -14 34 -65 34 -47 0 -53 -2 -53 -20 0 -63 69 -141 142 -161 24 -6 75 -9 114 -7 127 8 204 77 204 180 0 90 -66 148 -198 172 -93 18 -117 28 -132 57 -35 64 72 125 154 88 14 -7 32 -27 41 -45 15 -32 19 -34 65 -34 44 0 50 3 50 20 0 61 -60 131 -128 150 -47 13 -138 12 -177 -2z"
       id="path13" />
    <path
       d="M2390 2050 c0 -5 0 -135 -1 -287 l0 -278 51 -3 50 -3 0 207 c0 114 3 205 6 202 3 -3 31 -95 62 -204 l58 -199 54 0 54 0 33 115 c19 63 47 156 63 205 l28 90 1 -208 1 -208 53 3 52 3 0 285 0 285 -80 3 -81 3 -33 -108 c-17 -59 -44 -147 -59 -195 -14 -49 -29 -88 -33 -88 -3 0 -16 35 -28 78 -46 157 -83 277 -90 292 -10 18 -161 28 -161 10z"
       id="path15" />
    <path
       d="M3010 1770 l0 -291 53 3 52 3 0 285 0 285 -52 3 -53 3 0 -291z"
       id="path17" />
    <path
       d="M3157 2054 c-4 -4 -7 -27 -7 -51 l0 -43 70 0 70 0 2 -237 3 -238 55 0 55 0 3 238 2 237 71 0 70 0 -3 48 -3 47 -191 3 c-104 1 -193 -1 -197 -4z"
       id="path19" />
    <path
       d="M4044 2046 c-3 -8 -4 -111 -2 -228 4 -244 10 -269 77 -313 72 -48 223 -47 298 2 69 44 73 62 73 324 l0 230 -52 -3 -53 -3 -5 -223 c-5 -219 -5 -224 -28 -243 -55 -44 -159 -32 -187 21 -12 23 -15 72 -15 240 l0 210 -50 0 c-35 0 -52 -4 -56 -14z"
       id="path21" />
    <path
       d="M4547 2053 c-4 -3 -7 -134 -7 -290 l0 -283 146 0 c80 0 165 5 190 11 126 32 161 178 63 262 l-40 34 35 35 c83 83 38 205 -85 229 -52 10 -293 12 -302 2z m283 -98 c37 -19 48 -57 26 -91 -23 -34 -58 -45 -135 -42 l-66 3 -3 59 c-2 32 -1 65 2 72 8 20 138 19 176 -1z m21 -244 c45 -45 37 -100 -18 -129 -12 -7 -58 -12 -102 -12 l-81 0 0 85 0 85 86 0 c81 0 87 -1 115 -29z"
       id="path23" />
    <path
       d="M5030 1781 c0 -155 0 -284 0 -288 0 -5 24 -8 53 -8 l52 0 0 285 0 285 -52 3 -53 3 0 -280z"
       id="path25" />
    <path
       d="M5670 1781 c0 -155 0 -284 0 -288 0 -5 24 -8 53 -8 l52 0 5 125 5 125 110 0 110 0 5 -125 5 -125 53 -3 52 -3 0 291 0 291 -52 -3 -53 -3 -3 -112 -3 -113 -114 0 -114 0 -3 113 -3 112 -52 3 -53 3 0 -280z"
       id="path27" />
    <path
       d="M6177 2053 c-4 -3 -7 -134 -7 -290 l0 -283 55 0 55 0 0 290 0 290 -48 0 c-27 0 -52 -3 -55 -7z"
       id="path29" />
    <path
       d="M454 1362 c-11 -20 -47 -82 -79 -137 -76 -129 -110 -188 -178 -307 l-56 -98 338 0 339 0 60 102 c174 297 272 468 272 474 0 2 -152 4 -337 4 l-338 0 -21 -38z"
       id="path31"
       style="fill:#ff0000" />
    <path
       d="M1197 1352 c16 -26 91 -157 168 -290 l140 -242 338 0 337 0 -21 43 c-12 23 -41 74 -64 112 -23 39 -88 150 -144 248 l-103 177 -339 0 -339 0 27 -48z"
       id="path33"
       style="fill:#ff0000" />
    <path
       d="M3885 1388 c-59 -22 -108 -63 -138 -117 -26 -47 -32 -68 -35 -141 -5 -109 14 -179 64 -238 62 -73 146 -100 253 -81 72 13 125 50 159 111 36 68 32 78 -36 78 -55 0 -58 -2 -69 -30 -14 -37 -68 -70 -115 -70 -29 0 -47 8 -77 36 -59 52 -80 135 -61 230 10 46 21 67 50 96 33 33 44 38 84 38 60 0 100 -21 116 -60 12 -29 15 -30 72 -30 l60 0 -6 28 c-12 48 -59 105 -110 131 -56 29 -160 38 -211 19z"
       id="path35" />
    <path
       d="M5439 1386 c-122 -43 -176 -145 -167 -314 6 -122 49 -196 143 -244 47 -25 148 -29 210 -9 48 16 112 74 131 118 25 57 21 63 -45 63 -56 0 -59 -1 -71 -31 -27 -65 -112 -88 -178 -47 -97 60 -107 267 -17 347 48 42 118 44 164 6 16 -14 33 -35 36 -45 5 -17 16 -20 67 -20 l60 0 -7 28 c-29 118 -196 195 -326 148z"
       id="path37" />
    <path
       d="M2390 1385 c0 -3 0 -130 -1 -282 l0 -278 216 -3 216 -2 -3 42 -3 43 -157 3 -158 3 0 79 0 80 135 0 135 0 0 45 0 44 -132 3 -133 3 -3 63 -3 62 156 0 156 0 -3 48 -3 47 -207 3 c-115 1 -208 0 -208 -3z"
       id="path39" />
    <path
       d="M2860 1105 l0 -285 190 0 190 0 0 45 0 45 -135 0 -135 0 0 240 0 240 -55 0 -55 0 0 -285z"
       id="path41" />
    <path
       d="M3280 1105 l0 -285 215 0 215 0 0 45 0 44 -157 3 -158 3 0 75 0 75 138 3 137 3 0 44 0 44 -137 3 -138 3 -3 63 -3 62 156 0 156 0 -3 48 -3 47 -207 3 -208 2 0 -285z"
       id="path43" />
    <path
       d="M4210 1340 l0 -50 70 0 70 0 0 -235 0 -235 55 0 55 0 2 233 3 232 68 3 67 3 0 49 0 50 -195 0 -195 0 0 -50z"
       id="path45" />
    <path
       d="M4640 1106 l0 -286 55 0 55 0 0 110 0 110 70 0 c103 0 140 -33 140 -125 0 -18 3 -47 6 -64 6 -30 8 -31 60 -31 l54 0 -6 73 c-9 106 -21 142 -55 172 -18 14 -30 27 -28 29 2 2 14 9 27 15 57 30 79 127 46 197 -31 64 -75 78 -261 82 l-163 4 0 -286z m305 159 c32 -31 32 -74 0 -109 -22 -24 -30 -26 -110 -26 l-85 0 0 80 0 80 85 0 c78 0 88 -2 110 -25z"
       id="path47" />
    <path
       d="M5120 1105 l0 -285 55 0 55 0 0 285 0 285 -55 0 -55 0 0 -285z"
       id="path49" />
    <path
       d="M424 565 c-82 -18 -118 -38 -179 -99 -68 -68 -95 -126 -95 -202 0 -75 14 -102 70 -132 42 -22 52 -23 144 -18 54 4 110 12 124 19 28 14 53 64 27 53 -38 -14 -145 -28 -170 -22 -15 4 -40 20 -56 36 -80 80 13 283 147 319 38 10 122 3 167 -14 12 -5 17 -2 17 8 0 9 3 22 6 30 4 11 -5 17 -38 22 -90 14 -105 14 -164 0z"
       id="path51"
       style="fill:#808080" />
    <path
       d="M4729 545 c-19 -54 -118 -396 -119 -412 0 -2 49 -3 108 -3 176 0 248 33 259 119 5 36 2 44 -27 71 -18 16 -39 30 -47 30 -23 0 -6 17 41 40 73 35 104 105 68 150 -19 24 -27 25 -146 30 l-126 5 -11 -30z m194 -32 c24 -14 -4 -83 -43 -106 -36 -22 -90 -23 -90 -2 0 25 32 99 49 113 14 11 61 9 84 -5z m-69 -204 c34 -27 35 -71 1 -104 -20 -21 -34 -25 -80 -25 -30 0 -55 1 -55 3 0 10 34 115 41 130 13 23 60 22 93 -4z"
       id="path53"
       style="fill:#808080" />
    <path
       d="M2775 491 c-62 -28 -67 -39 -139 -281 -13 -47 -27 -95 -31 -107 -6 -21 -3 -23 34 -23 39 0 41 1 51 43 6 23 20 69 30 102 10 33 23 74 28 90 7 24 15 31 40 33 19 2 36 11 42 22 9 16 6 19 -22 22 -40 4 -44 17 -17 52 19 24 27 27 59 22 32 -5 39 -3 43 13 9 36 -53 42 -118 12z"
       id="path55"
       style="fill:#808080" />
    <path
       d="M672 418 c-12 -46 -33 -122 -46 -169 -13 -48 -26 -92 -30 -98 -5 -7 6 -11 32 -11 39 0 40 2 61 53 13 31 41 73 67 98 l44 43 0 -29 c0 -17 -11 -60 -24 -98 l-24 -67 44 0 c36 0 44 3 44 18 0 10 9 44 20 75 11 32 23 78 26 101 5 37 3 46 -12 54 -36 19 -105 -28 -143 -96 -5 -9 -13 -14 -16 -10 -4 4 7 47 24 96 40 117 40 122 -7 122 l-37 0 -23 -82z"
       id="path57"
       style="fill:#808080" />
    <path
       d="M3878 408 c-14 -51 -37 -133 -50 -181 l-25 -88 41 3 c38 3 41 5 53 46 11 40 67 115 101 136 12 7 13 1 7 -35 -4 -24 -15 -67 -25 -96 l-17 -53 37 0 c35 0 38 3 53 43 9 23 24 75 34 116 16 69 16 74 0 86 -9 7 -28 10 -42 7 -25 -4 -105 -82 -105 -102 0 -5 -4 -10 -10 -10 -14 0 -12 27 4 63 15 32 46 134 46 149 0 4 -17 8 -38 8 l-39 0 -25 -92z"
       id="path59"
       style="fill:#808080" />
    <path
       d="M3684 432 c-10 -6 -84 -241 -84 -265 0 -4 11 -14 25 -23 33 -21 101 -11 108 17 4 14 0 19 -14 19 -31 0 -33 24 -9 100 19 60 25 70 45 70 14 0 25 7 28 20 4 15 0 20 -15 20 -16 0 -19 5 -16 25 5 22 2 25 -26 25 -17 0 -36 -4 -42 -8z"
       id="path61"
       style="fill:#808080" />
    <path
       d="M5414 432 c-7 -4 -17 -27 -24 -52 -6 -25 -20 -71 -31 -103 -38 -112 -19 -157 60 -142 51 10 70 41 29 47 -20 3 -23 8 -20 38 5 63 32 130 52 130 11 0 24 9 29 19 9 15 7 20 -11 24 -15 4 -19 11 -15 26 4 18 1 21 -26 21 -18 0 -37 -4 -43 -8z"
       id="path63"
       style="fill:#808080" />
    <path
       d="M5614 432 c-22 -14 -89 -249 -78 -275 13 -34 124 -31 124 3 0 10 -9 20 -20 23 -25 7 -25 28 1 105 18 53 24 62 45 62 13 0 24 4 24 9 0 5 3 16 6 24 4 10 -1 15 -13 14 -13 -2 -18 5 -17 21 0 18 -5 22 -30 22 -17 0 -36 -4 -42 -8z"
       id="path65"
       style="fill:#808080" />
    <path
       d="M1100 391 c-58 -8 -100 -38 -139 -100 -41 -63 -50 -114 -26 -141 10 -11 25 -20 33 -20 27 0 79 40 106 81 34 51 43 44 22 -17 -9 -26 -16 -49 -16 -51 0 -2 18 -3 40 -3 38 0 40 1 50 43 6 23 22 76 35 118 14 42 25 81 25 88 0 12 -53 13 -130 2z m32 -66 c-4 -22 -67 -102 -95 -119 -46 -29 -39 57 10 114 20 25 32 30 57 28 25 -2 30 -7 28 -23z"
       id="path67"
       style="fill:#808080" />
    <path
       d="M1317 393 c-8 -14 -46 -136 -61 -195 l-14 -58 38 0 c37 0 39 2 54 48 16 46 100 151 112 139 7 -7 -23 -142 -38 -169 -8 -16 -4 -18 31 -18 l40 0 25 80 c39 123 43 156 18 169 -13 7 -29 8 -44 2 -25 -9 -92 -78 -100 -102 -3 -8 -9 -10 -14 -6 -5 4 -1 29 8 54 9 26 15 50 12 55 -6 10 -61 11 -67 1z"
       id="path69"
       style="fill:#808080" />
    <path
       d="M1760 393 c-57 -9 -71 -15 -105 -45 -46 -40 -87 -120 -83 -161 2 -24 10 -34 31 -41 37 -13 70 5 114 62 17 23 35 38 38 32 9 -14 -34 -126 -56 -146 -18 -17 -94 -17 -131 0 -15 7 -18 3 -18 -24 l0 -32 89 4 c87 3 91 4 125 37 24 23 38 49 47 85 6 28 22 84 35 125 34 105 33 111 -18 110 -24 -1 -54 -3 -68 -6z m20 -53 c0 -37 -99 -148 -120 -135 -22 13 10 101 49 133 18 15 71 16 71 2z"
       id="path71"
       style="fill:#808080" />
    <path
       d="M2060 390 c-53 -10 -93 -35 -126 -77 -24 -32 -29 -47 -29 -97 l0 -60 39 -15 c32 -12 48 -13 100 -2 66 14 86 25 86 48 0 11 -6 12 -22 6 -13 -4 -45 -8 -73 -8 -44 0 -50 3 -53 23 -3 18 1 22 23 22 35 0 99 34 124 66 47 60 12 109 -69 94z m18 -62 c5 -23 -33 -58 -63 -58 -33 0 -33 23 0 56 28 28 58 29 63 2z"
       id="path73"
       style="fill:#808080" />
    <path
       d="M2306 386 c-21 -8 -43 -19 -49 -25 -21 -21 -11 -69 21 -106 34 -38 36 -43 24 -61 -11 -18 -35 -21 -71 -12 -25 7 -36 6 -42 -4 -17 -26 -8 -36 39 -42 56 -7 107 5 139 36 32 30 29 62 -13 108 -46 51 -40 70 20 70 35 0 45 4 49 20 3 12 0 20 -8 20 -7 0 -25 2 -41 5 -16 3 -46 -2 -68 -9z"
       id="path75"
       style="fill:#808080" />
    <path
       d="M2986 385 c-79 -20 -146 -102 -146 -177 0 -124 210 -87 271 47 47 103 -8 160 -125 130z m52 -47 c18 -18 15 -56 -10 -105 -22 -43 -47 -59 -85 -51 -56 11 0 168 61 168 12 0 27 -5 34 -12z"
       id="path77"
       style="fill:#808080" />
    <path
       d="M3199 295 c-17 -55 -34 -112 -39 -127 -9 -27 -8 -28 30 -28 38 0 40 1 57 51 20 57 98 139 133 139 13 0 24 10 30 26 15 39 12 44 -20 33 -28 -10 -77 -58 -98 -96 -19 -33 -24 -4 -8 43 9 26 16 50 16 53 0 3 -16 6 -35 6 l-36 0 -30 -100z"
       id="path79"
       style="fill:#808080" />
    <path
       d="M4295 391 c-71 -18 -109 -48 -144 -118 -59 -118 12 -166 182 -122 28 7 37 15 37 30 0 16 -4 19 -17 14 -10 -4 -41 -10 -68 -12 -38 -4 -54 -1 -64 10 -17 21 -6 37 25 37 30 0 92 31 116 57 24 27 33 76 16 90 -20 17 -50 21 -83 14z m22 -57 c8 -21 -35 -64 -64 -64 -30 0 -30 24 2 55 28 28 53 32 62 9z"
       id="path81"
       style="fill:#808080" />
    <path
       d="M5195 390 c-78 -17 -139 -76 -156 -149 -12 -56 2 -86 46 -101 50 -17 161 4 176 32 14 26 8 30 -28 17 -17 -6 -48 -9 -70 -7 -31 2 -39 7 -41 26 -3 18 1 22 23 22 60 0 145 69 145 118 0 35 -42 53 -95 42z m17 -69 c-3 -29 -29 -50 -59 -51 -31 0 -29 24 2 56 31 31 61 28 57 -5z"
       id="path83"
       style="fill:#808080" />
    <path
       d="M5905 393 c-55 -10 -69 -16 -107 -51 -68 -61 -90 -149 -47 -188 42 -38 209 -16 209 27 0 17 -4 19 -22 12 -13 -4 -45 -8 -73 -8 -43 0 -50 3 -53 21 -3 18 3 22 39 27 74 10 150 92 123 134 -12 19 -42 31 -69 26z m3 -70 c4 -25 -31 -53 -65 -53 -27 0 -28 2 -8 40 23 44 67 53 73 13z"
       id="path85"
       style="fill:#808080" />
    <path
       d="M6072 353 c-6 -21 -22 -77 -36 -125 l-25 -88 38 0 c38 0 39 1 60 60 16 44 33 68 65 95 24 19 53 35 64 35 20 0 42 26 42 49 0 6 -11 11 -24 11 -25 0 -55 -24 -98 -80 -32 -40 -38 -23 -13 37 8 19 15 37 15 39 0 2 -17 4 -39 4 -36 0 -39 -2 -49 -37z"
       id="path87"
       style="fill:#808080" />
  </g>
</svg>
